<?xml version="1.0" standalone="no"?><!DOCTYPE svg PUBLIC "-//W3C//DTD SVG 1.1//EN" "http://www.w3.org/Graphics/SVG/1.1/DTD/svg11.dtd"><svg t="1585625352007" class="icon" viewBox="0 0 1024 1024" version="1.1" xmlns="http://www.w3.org/2000/svg" p-id="4187" xmlns:xlink="http://www.w3.org/1999/xlink" width="200" height="200"><defs><style type="text/css"></style></defs><path d="M512 512m-438.857143 0a438.857143 438.857143 0 1 0 877.714286 0 438.857143 438.857143 0 1 0-877.714286 0Z" fill="#F5F8FF" p-id="4188"></path><path d="M512 73.142857A438.857143 438.857143 0 0 0 73.142857 512a440.685714 440.685714 0 0 0 34.377143 170.788571 449.097143 449.097143 0 0 0 93.988571 139.702858 445.44 445.44 0 0 0 139.702858 93.988571A440.685714 440.685714 0 0 0 512 950.857143a438.857143 438.857143 0 0 0 88.502857-8.777143 438.857143 438.857143 0 0 0 315.977143-259.291429A438.857143 438.857143 0 0 0 512 73.142857zM120.685714 512a391.314286 391.314286 0 0 1 782.628572 0z" fill="#2D7000" p-id="4189"></path></svg>