<?xml version="1.0" standalone="no"?><!DOCTYPE svg PUBLIC "-//W3C//DTD SVG 1.1//EN" "http://www.w3.org/Graphics/SVG/1.1/DTD/svg11.dtd"><svg t="1585625375146" class="icon" viewBox="0 0 1740 1024" version="1.1" xmlns="http://www.w3.org/2000/svg" p-id="4812" xmlns:xlink="http://www.w3.org/1999/xlink" width="339.84375" height="200"><defs><style type="text/css"></style></defs><path d="M82.421917 82.421917m24.726574 0l1269.297515 0q24.726575 0 24.726575 24.726574l0 609.922183q0 24.726575-24.726575 24.726575l-1269.297515 0q-24.726575 0-24.726574-24.726575l0-609.922183q0-24.726575 24.726574-24.726574Z" fill="#F5F8FF" p-id="4813"></path><path d="M1376.446006 82.421917H107.148491a24.726575 24.726575 0 0 0-24.726574 24.726574v609.922183a25.138685 25.138685 0 0 0 24.726574 24.726575h1269.297515a24.726575 24.726575 0 0 0 24.726575-24.726575V107.148491a24.726575 24.726575 0 0 0-24.726575-24.726574zM135.996162 135.996162h1131.240804L141.353587 688.223003H135.996162z" fill="#0000FF" p-id="4814"></path></svg>