<?xml version="1.0" standalone="no"?><!DOCTYPE svg PUBLIC "-//W3C//DTD SVG 1.1//EN" "http://www.w3.org/Graphics/SVG/1.1/DTD/svg11.dtd"><svg t="1585625963125" class="icon" viewBox="0 0 1024 1024" version="1.1" xmlns="http://www.w3.org/2000/svg" p-id="4179" xmlns:xlink="http://www.w3.org/1999/xlink" width="200" height="200"><defs><style type="text/css"></style></defs><path d="M747.054545 142.894545A335.127273 335.127273 0 0 0 279.272727 142.894545a325.818182 325.818182 0 0 0 0 465.454546 725.178182 725.178182 0 0 1 208.523637 333.730909c3.258182 8.843636 14.429091 34.909091 25.6 34.909091 11.170909 0 22.341818-26.065455 25.6-34.909091a725.178182 725.178182 0 0 1 208.523636-333.730909 325.818182 325.818182 0 0 0 0-465.454546z" fill="#D1A900" p-id="4180"></path><path d="M512 377.949091m-251.345455 0a251.345455 251.345455 0 1 0 502.69091 0 251.345455 251.345455 0 1 0-502.69091 0Z" fill="#F5F8FF" p-id="4181"></path><path d="M512 527.825455m-33.047273 0a33.047273 33.047273 0 1 0 66.094546 0 33.047273 33.047273 0 1 0-66.094546 0Z" fill="#D1A900" p-id="4182"></path><path d="M512 411.461818A116.363636 116.363636 0 0 0 413.789091 465.454545l20.945454 23.738182a85.643636 85.643636 0 0 1 154.53091 0l20.945454-23.738182A116.829091 116.829091 0 0 0 512 411.461818z" fill="#D1A900" p-id="4183"></path><path d="M512 328.610909a199.214545 199.214545 0 0 0-154.530909 73.541818l20.48 23.272728a167.098182 167.098182 0 0 1 267.636364 0l20.48-23.272728A197.818182 197.818182 0 0 0 512 328.610909z" fill="#D1A900" p-id="4184"></path><path d="M512 245.76a279.272727 279.272727 0 0 0-209.454545 93.090909l19.54909 22.807273a250.88 250.88 0 0 1 379.345455 0l20.014545-22.807273a279.272727 279.272727 0 0 0-209.454545-93.090909z" fill="#D1A900" p-id="4185"></path></svg>