<?xml version="1.0" standalone="no"?><!DOCTYPE svg PUBLIC "-//W3C//DTD SVG 1.1//EN" "http://www.w3.org/Graphics/SVG/1.1/DTD/svg11.dtd"><svg t="1585625945852" class="icon" viewBox="0 0 1024 1024" version="1.1" xmlns="http://www.w3.org/2000/svg" p-id="3818" xmlns:xlink="http://www.w3.org/1999/xlink" width="200" height="200"><defs><style type="text/css"></style></defs><path d="M747.054545 142.894545A335.127273 335.127273 0 0 0 279.272727 142.894545a325.818182 325.818182 0 0 0 0 465.454546 725.178182 725.178182 0 0 1 208.523637 333.730909c3.258182 8.843636 14.429091 34.909091 25.6 34.909091 11.170909 0 22.341818-26.065455 25.6-34.909091a725.178182 725.178182 0 0 1 208.523636-333.730909 325.818182 325.818182 0 0 0 0-465.454546z" fill="#C642E5" p-id="3819"></path><path d="M512 377.949091m-251.345455 0a251.345455 251.345455 0 1 0 502.69091 0 251.345455 251.345455 0 1 0-502.69091 0Z" fill="#F5F8FF" p-id="3820"></path></svg>