<svg id="图层_1" data-name="图层 1" xmlns="http://www.w3.org/2000/svg" viewBox="0 0 42 42"><defs><style>.cls-1{fill:#f5f8ff;}.cls-2{fill:olive;}</style></defs><title>污水井</title><circle class="cls-1" cx="21" cy="21" r="11.41"/><path class="cls-2" d="M21,8.5A12.5,12.5,0,1,0,33.5,21,12.5,12.5,0,0,0,21,8.5ZM31.26,20.15H21.85V10.74A10.31,10.31,0,0,1,31.26,20.15ZM20.15,10.74v9.41H10.74A10.31,10.31,0,0,1,20.15,10.74ZM10.74,21.85h9.41v9.41A10.31,10.31,0,0,1,10.74,21.85Zm11.11,9.41V21.85h9.41A10.31,10.31,0,0,1,21.85,31.26Z"/></svg>