<svg id="图层_1" data-name="图层 1" xmlns="http://www.w3.org/2000/svg" viewBox="0 0 42 42"><defs><style>.cls-1{fill:#f5f8ff;}.cls-2{fill:olive;}</style></defs><title>雨水井</title><circle class="cls-1" cx="21" cy="21" r="11.41"/><path class="cls-2" d="M21,8.5A12.5,12.5,0,1,0,33.5,21,12.52,12.52,0,0,0,21,8.5Zm.79,11.71V17.33h8.84a10.23,10.23,0,0,1,.65,2.88Zm-1.58-2.88v2.88H10.72a10.23,10.23,0,0,1,.65-2.88Zm0,4.46v2.88H11.37a10.23,10.23,0,0,1-.65-2.88Zm1.58,2.88V21.79h9.49a10.23,10.23,0,0,1-.65,2.88Zm0-8.92v-5a10.34,10.34,0,0,1,8.08,5Zm-1.58-5v5H12.13A10.32,10.32,0,0,1,20.21,10.72Zm0,15.53v5a10.32,10.32,0,0,1-8.08-5Zm1.58,5v-5h8.08A10.34,10.34,0,0,1,21.79,31.28Z"/></svg>