<svg id="图层_1" data-name="图层 1" xmlns="http://www.w3.org/2000/svg" viewBox="0 0 18 18"><title>列项</title><path d="M14.89,6.74a.66.66,0,0,0,0-.16l0-.08a.65.65,0,0,0-.1-.14h0l-4.31-4A.65.65,0,0,0,10,2.15H3.84a.75.75,0,0,0-.75.75V15.1a.75.75,0,0,0,.75.75H14.16a.75.75,0,0,0,.75-.75V6.83A.6.6,0,0,0,14.89,6.74ZM10.53,4.24l2,1.91-2,0ZM4.39,14.55V3.45H9.23V6.74a.65.65,0,0,0,.64.65l3.74.08v7.08Z"/><path d="M6.23,7.17H7.75a.65.65,0,1,0,0-1.3H6.23a.65.65,0,1,0,0,1.3Z"/><path d="M11.77,8.74H6.23a.65.65,0,0,0,0,1.3h5.54a.65.65,0,1,0,0-1.3Z"/><path d="M11.77,11.61H6.23a.65.65,0,0,0,0,1.3h5.54a.65.65,0,1,0,0-1.3Z"/></svg>