<svg id="图层_1" data-name="图层 1" xmlns="http://www.w3.org/2000/svg" viewBox="0 0 18 18"><title>删除</title><path d="M14.89,4h-3.1V2.49a.93.93,0,0,0-.93-.93H7.14a.93.93,0,0,0-.93.93V4H3.11a.62.62,0,0,0,0,1.24h.31v8.21A2.82,2.82,0,0,0,6.1,16.44h6.12a2.51,2.51,0,0,0,2.36-2.63V5.28h.31a.62.62,0,1,0,0-1.24ZM7.45,2.8h3.1v.93H7.45Zm5.89,11a1.31,1.31,0,0,1-1.12,1.39H6.1a1.62,1.62,0,0,1-1.43-1.7V5.28h8.67Z"/><path d="M6.52,13.65A.62.62,0,0,0,7.14,13V7.45a.62.62,0,0,0-1.24,0V13A.62.62,0,0,0,6.52,13.65Z"/><path d="M9,13.65A.62.62,0,0,0,9.62,13V7.45a.62.62,0,0,0-1.24,0V13A.62.62,0,0,0,9,13.65Z"/><path d="M11.48,13.65A.62.62,0,0,0,12.1,13V7.45a.62.62,0,1,0-1.24,0V13A.62.62,0,0,0,11.48,13.65Z"/></svg>