<svg id="图层_1" data-name="图层 1" xmlns="http://www.w3.org/2000/svg" viewBox="0 0 18 18"><title>日历</title><path d="M14.52,3.19H12.06V2.41a.6.6,0,0,0-1.2,0v.79H7.14V2.41a.6.6,0,1,0-1.2,0v.79H3.48A1.48,1.48,0,0,0,2,4.68v10a1.48,1.48,0,0,0,1.48,1.48h11A1.48,1.48,0,0,0,16,14.71v-10A1.48,1.48,0,0,0,14.52,3.19Zm.26,11.33a.45.45,0,0,1-.44.44H3.67a.45.45,0,0,1-.44-.44V8.36H14.78Zm0-7.39H3.22V4.86a.44.44,0,0,1,.44-.44H5.94V5.2a.6.6,0,1,0,1.2,0V4.42h3.72V5.2a.6.6,0,0,0,1.2,0V4.42h2.27a.44.44,0,0,1,.44.44Z"/><path d="M4.88,11.07H6.13a.6.6,0,0,0,0-1.2H4.88a.6.6,0,0,0,0,1.2Z"/><path d="M8.38,11.07H9.63a.6.6,0,1,0,0-1.2H8.38a.6.6,0,0,0,0,1.2Z"/><path d="M11.88,11.07h1.25a.6.6,0,1,0,0-1.2H11.88a.6.6,0,1,0,0,1.2Z"/><path d="M4.88,13.47H6.13a.6.6,0,1,0,0-1.2H4.88a.6.6,0,1,0,0,1.2Z"/><path d="M8.38,13.47H9.63a.6.6,0,1,0,0-1.2H8.38a.6.6,0,1,0,0,1.2Z"/><path d="M11.88,13.47h1.25a.6.6,0,1,0,0-1.2H11.88a.6.6,0,1,0,0,1.2Z"/></svg>