<svg id="图层_1" data-name="图层 1" xmlns="http://www.w3.org/2000/svg" viewBox="0 0 20 20"><title>返回列表</title><path d="M8.54,9.52a.64.64,0,0,0-.7-.61H5.67a.62.62,0,1,0,0,1.22H7.84A.64.64,0,0,0,8.54,9.52Z"/><path d="M12.75,6.59a.61.61,0,0,0,0-1.22H5.58a.61.61,0,1,0,0,1.22Z"/><path d="M5.58,12.54a.61.61,0,0,0,0,1.22H7a.61.61,0,1,0,0-1.22Z"/><path d="M14.9,1h-10A2.34,2.34,0,0,0,2.6,3.29V16a2.29,2.29,0,0,0,2.31,2.31h5.65a.57.57,0,0,0,.57-.61.58.58,0,0,0-.61-.61H4.91A1.12,1.12,0,0,1,3.81,16V3.29A1.07,1.07,0,0,1,4.91,2.2h10A1.12,1.12,0,0,1,16,3.29V8.12a.61.61,0,1,0,1.22,0V3.29A2.29,2.29,0,0,0,14.9,1Z"/><path d="M15.89,12.24l-.24-.2a4.57,4.57,0,0,0-.36-.29l.59-1.06a.79.79,0,0,0,0-.77,1.27,1.27,0,0,0-.54-.38.69.69,0,0,0-.47-.14h-.08l-4.88.7a1,1,0,0,0-.58.47,1.18,1.18,0,0,0,0,.72l2.11,4.44a.76.76,0,0,0,.36.35.61.61,0,0,0,.39.17h.24A1.06,1.06,0,0,0,13,15.8l.52-.89a5.37,5.37,0,0,1,.94.89A3.09,3.09,0,0,1,15,16.85a1.85,1.85,0,0,1,.05,1.08.87.87,0,0,0,.1.58l.1.14.15.15,0,.08.05,0,.1,0h.05l.12.05h.05a.93.93,0,0,0,.75-.38,5.51,5.51,0,0,0,.7-4.09A5.17,5.17,0,0,0,15.89,12.24Z"/></svg>