<svg id="图层_1" data-name="图层 1" xmlns="http://www.w3.org/2000/svg" viewBox="0 0 30 30"><title>问题总数</title><path d="M8,19.24a.91.91,0,1,0,0,1.81H10a.92.92,0,0,0,.65-.26A.91.91,0,0,0,10,19.24Z"/><path d="M17.62,9.85a.9.9,0,0,0-.91-.9H8a.9.9,0,0,0-.64.26A.93.93,0,0,0,7,9.86a.9.9,0,0,0,.91.9h8.76A.91.91,0,0,0,17.62,9.85Z"/><path d="M11.76,14.09H8a.91.91,0,0,0-.64.27A.87.87,0,0,0,7,15a.91.91,0,0,0,.91.91h3.81a.91.91,0,0,0,0-1.82Z"/><path d="M26.8,23.24l-4.42-7.66a2.6,2.6,0,0,0-2.24-1.3,2.55,2.55,0,0,0-2.23,1.3l-4.42,7.66a2.61,2.61,0,0,0,0,2.62,2.57,2.57,0,0,0,2.22,1.29h8.86a2.6,2.6,0,0,0,2.23-3.91Zm-1.52,1.62-.06.09a.78.78,0,0,1-.69.39H15.75a.82.82,0,0,1-.69-.39.83.83,0,0,1,0-.81l4.42-7.66a.78.78,0,0,1,.66-.38.7.7,0,0,1,.38.1.71.71,0,0,1,.29.28l4.41,7.66A.83.83,0,0,1,25.28,24.86Z"/><path d="M10.89,26a3.25,3.25,0,0,1-.23-.54l0-.1H5.28a.62.62,0,0,1-.62-.62V5.28a.62.62,0,0,1,.62-.62h14.1a.62.62,0,0,1,.62.62v6.29l.05.15h.1a2.56,2.56,0,0,1,1.43.42l.15,0,0,0v0l0,0V5.28a2.43,2.43,0,0,0-2.43-2.43H5.28A2.43,2.43,0,0,0,2.85,5.28V24.72a2.43,2.43,0,0,0,2.43,2.43h6.51l-.27-.26A4.35,4.35,0,0,1,10.89,26Z"/><path d="M20.14,18.48a.9.9,0,0,0-.9.9v1.91a.91.91,0,1,0,1.81,0V19.38A.9.9,0,0,0,20.14,18.48Z"/><path d="M20.14,22.86a.89.89,0,1,0,.65.26A.92.92,0,0,0,20.14,22.86Z"/></svg>