<svg id="图层_1" data-name="图层 1" xmlns="http://www.w3.org/2000/svg" viewBox="0 0 30 30"><title>已提交排水户</title><path d="M11.17,15.56a1,1,0,0,0-.75-1v-.1H9.74a4.5,4.5,0,0,1-4.29-4.38,4.68,4.68,0,0,1,4.69-4.53.83.83,0,0,0,.92-.82,1.12,1.12,0,0,0-1.19-1,6.38,6.38,0,0,0-6.38,6.37,6.22,6.22,0,0,0,2.26,4.73,6.26,6.26,0,0,0,.57.45A10,10,0,0,0,.65,24.62a.94.94,0,0,0,1,.95,1.1,1.1,0,0,0,.67-.22.84.84,0,0,0,.36-.69c0-4.67,3.16-8.06,7.51-8.06A1,1,0,0,0,11.17,15.56Z"/><path d="M23.3,16.67a11.75,11.75,0,0,0-1.64-.78,7.67,7.67,0,0,0,3.46-6.36A7.58,7.58,0,0,0,10,9.53a7.47,7.47,0,0,0,2.67,5.7,7.61,7.61,0,0,0,.72.55A11.87,11.87,0,0,0,5.5,27a1,1,0,0,0,1,1.07,1,1,0,0,0,1.07-1,9.92,9.92,0,1,1,19.84,0,.84.84,0,0,0,.91.83,1.14,1.14,0,0,0,.65-.2.84.84,0,0,0,.36-.68A11.71,11.71,0,0,0,23.3,16.67Zm-5.88-1.62H17a5.52,5.52,0,0,1,.47-11,5.68,5.68,0,0,1,5.67,5.52,5.6,5.6,0,0,1-5.2,5.5Z"/></svg>