<svg id="图层_1" data-name="图层 1" xmlns="http://www.w3.org/2000/svg" viewBox="0 0 40 40"><title>废水接入量</title><path d="M34.26,24.92a5.72,5.72,0,0,0-3.86,1.69c-.62.53-1,.81-1.43.81s-.7-.2-1.27-.7a5.17,5.17,0,0,0-3.63-1.58,5,5,0,0,0-3.62,1.59c-.57.51-.8.69-1.23.69s-.73-.19-1.37-.74a5.35,5.35,0,0,0-3.62-1.53h-.37l0-.36c.16-2.65.93-4.58,2.29-5.73a2.5,2.5,0,0,1,.43-.29L17,18.5l.11.46a1.53,1.53,0,0,0,.55.83L18,20a4.7,4.7,0,0,0,2.66.8H31.16l.3,0,.26,0A4.69,4.69,0,0,0,33.58,20a6.4,6.4,0,0,0,1.87-1.93A10.58,10.58,0,0,0,37,12.39a10.62,10.62,0,0,0-1.55-5.71,6.4,6.4,0,0,0-1.87-1.93A4.69,4.69,0,0,0,31.72,4L31.57,4h-11a4.67,4.67,0,0,0-2.59.8,6.37,6.37,0,0,0-1.86,1.93,9.22,9.22,0,0,0-.88,1.78,1.47,1.47,0,0,0,.82,1.91l.86.39L16,11a14.93,14.93,0,0,0-2.42.8c-3.15,1.37-7.16,4.44-8.27,11.33A1.56,1.56,0,0,0,6.61,24.9l.25,0a1.56,1.56,0,0,0,1.53-1.3c.71-4.39,2.85-7.4,6.36-9a13.24,13.24,0,0,1,5.07-1.08h.31a1.55,1.55,0,0,0,1.54-1.46A1.5,1.5,0,0,0,21.28,11a1.55,1.55,0,0,0-1.07-.52H19.8a14.55,14.55,0,0,0-1.71.11l-.91.11.64-.67a1.51,1.51,0,0,0,.34-.51,5.79,5.79,0,0,1,.57-1.17,2.44,2.44,0,0,1,1.85-1.31c.9,0,1.59.92,1.84,1.31a7.64,7.64,0,0,1,1.06,4,7.6,7.6,0,0,1-1.06,4c0,.07-.12.17-.19.27l-.68.77.12-1.19a1.56,1.56,0,0,0-1.6-1.55h-.31a8.65,8.65,0,0,0-5.55,2c-2.07,1.74-3.22,4.45-3.43,8a1.51,1.51,0,0,0,.36,1.06l.22.27-.28.21c-.23.16-.44.32-.63.47-.54.43-.89.69-1.18.69a4.32,4.32,0,0,1-1.89-1,5.16,5.16,0,0,0-2.83-1.27,1.55,1.55,0,0,0,0,3.1,4.85,4.85,0,0,1,1.08.69,6.46,6.46,0,0,0,3.69,1.59,4.9,4.9,0,0,0,3.1-1.37,3,3,0,0,1,1.88-.91c.62,0,.95.26,1.6.81a4.94,4.94,0,0,0,3.37,1.47A4.66,4.66,0,0,0,22.52,29c.67-.6.94-.79,1.55-.79s1,.26,1.6.81A4.74,4.74,0,0,0,29,30.52,5.13,5.13,0,0,0,32.41,29c.73-.62,1.15-.95,1.85-.95a1.55,1.55,0,1,0,0-3.09Z"/><path d="M34.26,30.44a5.7,5.7,0,0,0-3.86,1.7c-.65.54-1,.81-1.43.81s-.7-.21-1.27-.71a5.17,5.17,0,0,0-3.63-1.57,5,5,0,0,0-3.62,1.58c-.57.52-.8.7-1.23.7s-.74-.2-1.38-.74a5.26,5.26,0,0,0-3.59-1.54,5.91,5.91,0,0,0-3.79,1.58c-.55.44-.9.7-1.19.7a4.31,4.31,0,0,1-1.89-1,5.12,5.12,0,0,0-2.83-1.27,1.55,1.55,0,0,0,0,3.09,5.53,5.53,0,0,1,1.07.7,6.46,6.46,0,0,0,3.7,1.59,4.92,4.92,0,0,0,3.11-1.37,3,3,0,0,1,1.87-.92c.61,0,.95.27,1.6.82a4.92,4.92,0,0,0,3.37,1.47,4.66,4.66,0,0,0,3.3-1.49c.67-.6.94-.8,1.55-.8s1,.26,1.59.81A4.77,4.77,0,0,0,29,36.05a5.08,5.08,0,0,0,3.44-1.56c.73-.63,1.15-1,1.85-1a1.55,1.55,0,1,0,0-3.1Z"/></svg>