<svg id="图层_1" data-name="图层 1" xmlns="http://www.w3.org/2000/svg" viewBox="0 0 30 30"><title>排水户总数</title><path d="M20.07,23.78a2.44,2.44,0,0,1-.58-1,1.17,1.17,0,0,1,.14-1c.05-.08.13-.19.18-.28s.24-.33.33-.49a2.57,2.57,0,0,0,.27-.52,1,1,0,0,0,0-.82,3.25,3.25,0,0,0-.28-.52c-.11-.18-.24-.36-.35-.54a4.37,4.37,0,0,1-.23-.49.89.89,0,0,1,0-.68c.07-.16.16-.33.25-.49s.23-.34.34-.52a5.14,5.14,0,0,0,.29-.51,1,1,0,0,0,0-.74,3.06,3.06,0,0,0-.22-.49c-.11-.2-.27-.4-.4-.61s-.19-.35-.29-.51a.8.8,0,0,1-.09-.43,1.75,1.75,0,0,1,.13-.61,2.86,2.86,0,0,1,.83-1.09c.09-.09.11-.13.06-.23a.5.5,0,0,0-.42-.29,1.93,1.93,0,0,0-.34,0,2.46,2.46,0,0,1-.37,0,.5.5,0,0,0-.43.4.41.41,0,0,1-.07.11,3.64,3.64,0,0,0-.45.43,2.15,2.15,0,0,0-.51,1,1.17,1.17,0,0,0,.13.91,1.83,1.83,0,0,0,.18.3c.15.2.27.4.4.6a2.49,2.49,0,0,1,.25.52,1,1,0,0,1,0,.78c-.08.14-.15.29-.24.43s-.27.42-.39.62a2.31,2.31,0,0,0-.24.47.89.89,0,0,0,0,.75,2.58,2.58,0,0,0,.22.44c.12.21.27.41.39.61a3,3,0,0,1,.29.56.89.89,0,0,1,.06.48,2,2,0,0,1-.27.67c-.13.22-.27.42-.4.62s-.18.3-.27.47a1.07,1.07,0,0,0-.09.47,2,2,0,0,0,.29.92,3,3,0,0,0,.68.79s.08.06.09.11a.5.5,0,0,0,.49.42H20a.52.52,0,0,0,.49-.35c0-.08,0-.1-.05-.18A1.94,1.94,0,0,1,20.07,23.78Z"/><path d="M16.17,11.38c.11-.09.11-.11,0-.23a.47.47,0,0,0-.41-.29,2,2,0,0,0-.35,0,.8.8,0,0,0-.34,0,.47.47,0,0,0-.42.31.6.6,0,0,1-.2.27,2.32,2.32,0,0,0-.18.16,2.62,2.62,0,0,0-.65,1.07,1.15,1.15,0,0,0,.13,1A2.2,2.2,0,0,0,14,14c.1.18.21.34.32.51a2.27,2.27,0,0,1,.27.54,1,1,0,0,1,0,.83l-.22.38c-.12.18-.25.36-.36.54s-.2.37-.29.55a1.13,1.13,0,0,0,0,.81c.06.13.13.27.2.39s.25.37.36.55a3.4,3.4,0,0,1,.31.52.84.84,0,0,1,.05.74,1.79,1.79,0,0,1-.19.45c-.13.24-.3.45-.44.69s-.18.31-.27.47a1,1,0,0,0-.09.47,2,2,0,0,0,.2.72,2.78,2.78,0,0,0,.78,1,.27.27,0,0,1,.07.13.41.41,0,0,0,.34.36,2,2,0,0,0,.9,0,.43.43,0,0,0,.35-.34.11.11,0,0,0,0-.13,2.37,2.37,0,0,1-.29-.25,2.52,2.52,0,0,1-.67-1.16,1.2,1.2,0,0,1,.15-1l.2-.28.34-.53a2.27,2.27,0,0,0,.27-.54,1.1,1.1,0,0,0,0-.74l-.28-.49a5.42,5.42,0,0,1-.37-.56,3,3,0,0,1-.26-.5.92.92,0,0,1,0-.76,4.31,4.31,0,0,1,.26-.47c.12-.22.27-.42.39-.62s.18-.3.26-.47a1.13,1.13,0,0,0,.07-.52,1.56,1.56,0,0,0-.2-.56c-.13-.23-.27-.45-.42-.67s-.21-.32-.3-.48a1,1,0,0,1-.11-.55,2.14,2.14,0,0,1,.16-.65A2.63,2.63,0,0,1,16.17,11.38Z"/><path d="M11.41,16.93l.4-.6a2.62,2.62,0,0,0,.27-.49,1,1,0,0,0,.06-.7,1.93,1.93,0,0,0-.26-.54c-.12-.22-.27-.42-.4-.62s-.18-.3-.27-.47a1,1,0,0,1-.09-.45,2,2,0,0,1,.24-.83,3,3,0,0,1,.74-.87c.09-.07.09-.07.06-.18a.51.51,0,0,0-.43-.32,2,2,0,0,0-.35,0l-.35,0a.45.45,0,0,0-.41.35.34.34,0,0,1-.11.17,2.58,2.58,0,0,0-.8,1,2,2,0,0,0-.18.76.86.86,0,0,0,.15.52l.38.6c.12.2.27.41.38.63a1.17,1.17,0,0,1,0,1.17l-.18.29-.27.4a4.46,4.46,0,0,0-.31.52,1.1,1.1,0,0,0,0,1,4.63,4.63,0,0,0,.24.43,5.27,5.27,0,0,1,.61,1,.86.86,0,0,1,.06.63,1.89,1.89,0,0,1-.27.61c-.13.2-.26.38-.38.58s-.22.35-.31.53a.7.7,0,0,0-.07.45,2.07,2.07,0,0,0,.32.93,4.14,4.14,0,0,0,.65.73.21.21,0,0,1,.09.1.52.52,0,0,0,.49.42,3,3,0,0,0,.6,0,.5.5,0,0,0,.48-.36c0-.06,0-.09-.05-.15a3.88,3.88,0,0,1-.42-.39,2.18,2.18,0,0,1-.54-1,1.1,1.1,0,0,1,.15-.9l.27-.42c.1-.18.23-.34.34-.52a3.49,3.49,0,0,0,.2-.44.89.89,0,0,0,0-.75c-.09-.17-.16-.31-.25-.46s-.23-.36-.36-.54a3,3,0,0,1-.29-.56,1,1,0,0,1,0-.74A1.9,1.9,0,0,1,11.41,16.93Z"/><path d="M27.41,12.79,17,2.73a2.8,2.8,0,0,0-3.78,0l-10.58,10a1.85,1.85,0,0,0-.12,2.58A1.81,1.81,0,0,0,3.71,16h.08v9.23a2.83,2.83,0,0,0,.83,2,2.78,2.78,0,0,0,2,.82H23.52a2.8,2.8,0,0,0,2.81-2.81V16h.08A1.84,1.84,0,0,0,28,14,1.79,1.79,0,0,0,27.41,12.79ZM25.9,14.08l0,0a.84.84,0,0,0-.37-.09.85.85,0,0,0-.35.08.84.84,0,0,0-.51.78V25.19a1.06,1.06,0,0,1-.32.77,1.09,1.09,0,0,1-.78.33H6.6A1.12,1.12,0,0,1,5.83,26a1.1,1.1,0,0,1-.32-.78V14.7A.88.88,0,0,0,5,13.91a1,1,0,0,0-.34-.07.87.87,0,0,0-.6.25l-.1,0-.08-.12L14.33,4a1.12,1.12,0,0,1,.74-.28,1.08,1.08,0,0,1,.72.27L26,13.89,26,14Z"/></svg>