<svg id="图层_1" data-name="图层 1" xmlns="http://www.w3.org/2000/svg" viewBox="0 0 18 18"><title>编辑</title><path d="M12.77,10a.6.6,0,0,0-.6.6v4.19h-9v-9H6.78a.6.6,0,0,0,0-1.2H2.6a.6.6,0,0,0-.6.6V15.41a.6.6,0,0,0,.6.6H12.77a.6.6,0,0,0,.6-.6V10.62A.6.6,0,0,0,12.77,10Z"/><path d="M15.82,4.69,13.29,2.17a.6.6,0,0,0-.85,0L6.59,8.05a.6.6,0,0,0-.17.33l-.47,3a.6.6,0,0,0,.59.69h.09l3-.48a.6.6,0,0,0,.33-.17l5.86-5.88a.6.6,0,0,0,0-.85ZM9.25,10.44l-2,.32.31-2,3.68-3.69,1.68,1.68ZM13.77,5.9,12.09,4.22l.78-.79,1.68,1.68Z"/></svg>