<?xml version="1.0" standalone="no"?><!DOCTYPE svg PUBLIC "-//W3C//DTD SVG 1.1//EN" "http://www.w3.org/Graphics/SVG/1.1/DTD/svg11.dtd"><svg t="1585625953077" class="icon" viewBox="0 0 1024 1024" version="1.1" xmlns="http://www.w3.org/2000/svg" p-id="3938" xmlns:xlink="http://www.w3.org/1999/xlink" width="200" height="200"><defs><style type="text/css"></style></defs><path d="M747.054545 142.894545A335.127273 335.127273 0 0 0 279.272727 142.894545a325.818182 325.818182 0 0 0 0 465.454546 725.178182 725.178182 0 0 1 208.523637 333.730909c3.258182 8.843636 14.429091 34.909091 25.6 34.909091 11.170909 0 22.341818-26.065455 25.6-34.909091a725.178182 725.178182 0 0 1 208.523636-333.730909 325.818182 325.818182 0 0 0 0-465.454546z" fill="#D1A900" p-id="3939"></path><path d="M512 377.949091m-251.345455 0a251.345455 251.345455 0 1 0 502.69091 0 251.345455 251.345455 0 1 0-502.69091 0Z" fill="#F5F8FF" p-id="3940"></path><path d="M670.72 593.92l-5.585455-35.374545a155.461818 155.461818 0 0 0-306.734545 0l-4.189091 32.581818a43.287273 43.287273 0 0 1-23.272727-7.912728 15.36 15.36 0 0 1-5.12-13.963636 186.181818 186.181818 0 0 1 118.225454-157.789091l6.981819-2.792727-5.585455-5.12a97.28 97.28 0 1 1 163.84-70.749091 96.814545 96.814545 0 0 1-31.185455 70.749091l-5.585454 5.12 6.981818 2.792727A186.181818 186.181818 0 0 1 698.181818 571.112727a19.083636 19.083636 0 0 1-5.12 13.963637 35.84 35.84 0 0 1-19.549091 8.843636zM512 266.24a66.56 66.56 0 0 0-66.56 66.56A65.629091 65.629091 0 0 0 512 398.429091a66.094545 66.094545 0 1 0 0-132.189091z" fill="#D1A900" p-id="3941"></path></svg>