<?xml version="1.0" standalone="no"?><!DOCTYPE svg PUBLIC "-//W3C//DTD SVG 1.1//EN" "http://www.w3.org/Graphics/SVG/1.1/DTD/svg11.dtd"><svg t="1585625958138" class="icon" viewBox="0 0 1024 1024" version="1.1" xmlns="http://www.w3.org/2000/svg" p-id="4059" xmlns:xlink="http://www.w3.org/1999/xlink" width="200" height="200"><defs><style type="text/css"></style></defs><path d="M488.727273 541.789091m-93.090909 0a93.090909 93.090909 0 1 0 186.181818 0 93.090909 93.090909 0 1 0-186.181818 0Z" fill="#729EC0" p-id="4060"></path><path d="M628.363636 61.905455v46.545454h46.545455v225.745455a276.014545 276.014545 0 0 0-186.181818-71.68 279.272727 279.272727 0 0 0-166.167273 503.156363L209.454545 962.094545h558.545455l-113.105455-196.421818a279.272727 279.272727 0 0 0 113.105455-223.883636V108.450909h46.545455v-46.545454z m-139.636363 316.974545a162.909091 162.909091 0 1 1-162.909091 162.909091 162.909091 162.909091 0 0 1 162.909091-162.909091z" fill="#729EC0" p-id="4061"></path></svg>