<?xml version="1.0" standalone="no"?><!DOCTYPE svg PUBLIC "-//W3C//DTD SVG 1.1//EN" "http://www.w3.org/Graphics/SVG/1.1/DTD/svg11.dtd"><svg t="1585625941617" class="icon" viewBox="0 0 1024 1024" version="1.1" xmlns="http://www.w3.org/2000/svg" p-id="3697" xmlns:xlink="http://www.w3.org/1999/xlink" width="200" height="200"><defs><style type="text/css"></style></defs><path d="M747.054545 142.894545A335.127273 335.127273 0 0 0 279.272727 142.894545a325.818182 325.818182 0 0 0 0 465.454546 725.178182 725.178182 0 0 1 208.523637 333.730909c3.258182 8.843636 14.429091 34.909091 25.6 34.909091 11.170909 0 22.341818-26.065455 25.6-34.909091a725.178182 725.178182 0 0 1 208.523636-333.730909 325.818182 325.818182 0 0 0 0-465.454546z" fill="#00AC9C" p-id="3698"></path><path d="M512 377.949091m-251.345455 0a251.345455 251.345455 0 1 0 502.69091 0 251.345455 251.345455 0 1 0-502.69091 0Z" fill="#F5F8FF" p-id="3699"></path><path d="M349.090909 325.818182h325.818182v19.549091h-325.818182z m36.770909 37.701818h252.741818v93.090909h-114.036363v20.014546h122.88v17.687272h-122.88v21.410909h149.410909v20.014546h-325.818182v-20.014546h148.945455v-21.410909H377.018182v-17.687272h121.483636v-18.618182H385.861818z m7.912727-144.756364h237.381819v89.832728h-237.381819z m17.221819 186.181819h87.505454v-23.272728H410.996364z m87.505454 37.701818V418.909091H410.996364v22.341818zM418.909091 256h186.181818v-20.945455H418.909091z m186.181818 36.770909v-21.410909H418.909091v21.410909zM524.567273 381.672727v22.341818h88.901818V381.672727z m88.901818 60.043637V418.909091h-88.901818v22.341818z" fill="#00AC9C" p-id="3700"></path></svg>