<?xml version="1.0" standalone="no"?><!DOCTYPE svg PUBLIC "-//W3C//DTD SVG 1.1//EN" "http://www.w3.org/Graphics/SVG/1.1/DTD/svg11.dtd"><svg t="1585625937166" class="icon" viewBox="0 0 1024 1024" version="1.1" xmlns="http://www.w3.org/2000/svg" p-id="3576" xmlns:xlink="http://www.w3.org/1999/xlink" width="200" height="200"><defs><style type="text/css"></style></defs><path d="M747.054545 142.894545A335.127273 335.127273 0 0 0 279.272727 142.894545a325.818182 325.818182 0 0 0 0 465.454546 725.178182 725.178182 0 0 1 208.523637 333.730909c3.258182 8.843636 14.429091 34.909091 25.6 34.909091 11.170909 0 22.341818-26.065455 25.6-34.909091a725.178182 725.178182 0 0 1 208.523636-333.730909 325.818182 325.818182 0 0 0 0-465.454546z" fill="#C642E5" p-id="3577"></path><path d="M512 377.949091m-251.345455 0a251.345455 251.345455 0 1 0 502.69091 0 251.345455 251.345455 0 1 0-502.69091 0Z" fill="#F5F8FF" p-id="3578"></path><path d="M364.450909 301.614545a455.214545 455.214545 0 0 1 62.836364 57.716364l-18.152728 17.687273a424.96 424.96 0 0 0-63.301818-57.250909zM418.909091 412.858182c-13.498182 46.545455-27.927273 93.090909-42.821818 129.396363l-25.6-11.170909c16.756364-41.425455 32.116364-83.781818 46.545454-127.069091zM372.363636 217.832727a423.563636 423.563636 0 0 1 60.509091 57.250909l-17.687272 18.618182A427.752727 427.752727 0 0 0 349.090909 235.52z m93.090909 179.665455a390.981818 390.981818 0 0 1-30.254545 37.236363L418.909091 414.254545a271.825455 271.825455 0 0 0 67.956364-128.465454l24.66909 3.258182a380.276364 380.276364 0 0 1-23.272727 68.421818v188.974545H465.454545z m-27.927272-147.549091h101.934545a228.072727 228.072727 0 0 0-16.756363-35.374546l26.530909-4.654545a397.963636 397.963636 0 0 1 16.290909 40.029091h103.330909v24.203636h-232.727273z m144.290909 40.494545l-6.516364 29.789091H651.636364v20.014546a305.338182 305.338182 0 0 1-50.734546 129.861818 204.8 204.8 0 0 0 77.265455 53.061818l-14.894546 21.876364a219.694545 219.694545 0 0 1-77.265454-56.32 240.174545 240.174545 0 0 1-71.214546 55.389091l-12.101818-22.807273a259.723636 259.723636 0 0 0 67.956364-51.665455 294.632727 294.632727 0 0 1-34.443637-61.44 232.727273 232.727273 0 0 1-18.618181 23.738182l-15.825455-19.549091A258.792727 258.792727 0 0 0 558.545455 285.789091z m0 74.938182a299.287273 299.287273 0 0 1 32.581818 29.789091 350.952727 350.952727 0 0 0 13.963636-52.596364h-60.043636a246.225455 246.225455 0 0 1-18.152727 42.821819 257.861818 257.861818 0 0 0 34.909091 65.629091 186.181818 186.181818 0 0 0 20.014545-34.909091 303.010909 303.010909 0 0 0-39.098182-35.84z" fill="#C642E5" p-id="3579"></path></svg>